<svg id="Layer_1" data-name="Layer 1" xmlns="http://www.w3.org/2000/svg" viewBox="0 0 100 100"><defs><style>.cls-1{fill:none;stroke:#000;stroke-linecap:round;stroke-linejoin:round;stroke-width:3px;}</style></defs><title>Artboard 3</title><path class="cls-1" d="M36.46,54.92V19.23c0-3.05,2.17-5.54,4.82-5.54h0c2.65,0,4.82,2.49,4.82,5.54V43.85"/><path class="cls-1" d="M46.1,43.85V15.54c0-3,2.17-5.54,4.82-5.54h0c2.64,0,4.81,2.49,4.81,5.54V43.85"/><path class="cls-1" d="M55.73,43.23V18.62c0-3.05,2.17-5.54,4.82-5.54h0c2.65,0,4.82,2.49,4.82,5.54V43.23"/><path class="cls-1" d="M65.37,44.46V32.81c0-2.05,2.16-5,4.81-5h0c2.65,0,4.82,2.91,4.82,5V76.46s0,7.39-5.35,7.39V90H36.46V83.85s-4.28,0-6.42-7.39L22.1,46.94c-.8-1.84,0-5.56,2.36-6.93h0A4.68,4.68,0,0,1,30.7,42l6,13.7"/></svg>