<svg id="Layer_1" data-name="Layer 1" xmlns="http://www.w3.org/2000/svg" viewBox="0 0 100 100"><defs><style>.cls-1{fill:none;stroke:#000;stroke-linecap:round;stroke-linejoin:round;stroke-width:3px;}</style></defs><title>Artboard 1</title><path class="cls-1" d="M42.47,41.5H63L58.8,46V82c0,5-3.78,9-8.4,9h0c-4.62,0-8.4-4-8.4-9V48"/><polyline class="cls-1" points="34.81 61.72 25.1 66.07 33.84 48.7 14.65 42.26 33.84 35.82 25.1 18.45 43.5 26.7 50.33 8.59 57.15 26.7 75.55 18.45 66.81 35.82 86 42.26 66.81 48.7 75.55 66.07 65.7 61.66"/><line class="cls-1" x1="51.5" y1="59.5" x2="58.5" y2="59.5"/><line class="cls-1" x1="50.5" y1="67.5" x2="50.5" y2="67.5"/><line class="cls-1" x1="47.5" y1="73.5" x2="47.5" y2="73.5"/></svg>